<mxfile host="app.diagrams.net" modified="2023-11-26T03:39:01.944Z" agent="Mozilla/5.0 (Windows NT 10.0; Win64; x64) AppleWebKit/537.36 (KHTML, like Gecko) Chrome/119.0.0.0 Safari/537.36" etag="7bTWLSiDqlp0QwEDhnSF" version="22.1.4" type="device">
  <diagram name="Page-1" id="5rSx84_CLCctJg4ml9_R">
    <mxGraphModel dx="1434" dy="790" grid="1" gridSize="10" guides="1" tooltips="1" connect="1" arrows="1" fold="1" page="1" pageScale="1" pageWidth="850" pageHeight="1100" math="0" shadow="0">
      <root>
        <mxCell id="0" />
        <mxCell id="1" parent="0" />
        <mxCell id="BbRsbKk0lHvd4BBJ2xGI-1" value="Start" style="strokeWidth=2;html=1;shape=mxgraph.flowchart.start_1;whiteSpace=wrap;" vertex="1" parent="1">
          <mxGeometry x="370" y="200" width="100" height="60" as="geometry" />
        </mxCell>
        <mxCell id="BbRsbKk0lHvd4BBJ2xGI-5" style="edgeStyle=orthogonalEdgeStyle;rounded=0;orthogonalLoop=1;jettySize=auto;html=1;entryX=0.5;entryY=0;entryDx=0;entryDy=0;" edge="1" parent="1" source="BbRsbKk0lHvd4BBJ2xGI-2" target="BbRsbKk0lHvd4BBJ2xGI-4">
          <mxGeometry relative="1" as="geometry" />
        </mxCell>
        <mxCell id="BbRsbKk0lHvd4BBJ2xGI-6" value="Yes" style="edgeLabel;html=1;align=center;verticalAlign=middle;resizable=0;points=[];" vertex="1" connectable="0" parent="BbRsbKk0lHvd4BBJ2xGI-5">
          <mxGeometry x="-0.0333" y="-2" relative="1" as="geometry">
            <mxPoint as="offset" />
          </mxGeometry>
        </mxCell>
        <mxCell id="BbRsbKk0lHvd4BBJ2xGI-2" value="If button pressed" style="strokeWidth=2;html=1;shape=mxgraph.flowchart.decision;whiteSpace=wrap;" vertex="1" parent="1">
          <mxGeometry x="370" y="300" width="100" height="100" as="geometry" />
        </mxCell>
        <mxCell id="BbRsbKk0lHvd4BBJ2xGI-3" style="edgeStyle=orthogonalEdgeStyle;rounded=0;orthogonalLoop=1;jettySize=auto;html=1;entryX=0.5;entryY=0;entryDx=0;entryDy=0;entryPerimeter=0;" edge="1" parent="1" source="BbRsbKk0lHvd4BBJ2xGI-1" target="BbRsbKk0lHvd4BBJ2xGI-2">
          <mxGeometry relative="1" as="geometry" />
        </mxCell>
        <mxCell id="BbRsbKk0lHvd4BBJ2xGI-4" value="Create Die, Roll Die, Display Result/Image" style="rounded=1;whiteSpace=wrap;html=1;absoluteArcSize=1;arcSize=14;strokeWidth=2;" vertex="1" parent="1">
          <mxGeometry x="370" y="460" width="100" height="100" as="geometry" />
        </mxCell>
        <mxCell id="BbRsbKk0lHvd4BBJ2xGI-9" style="edgeStyle=orthogonalEdgeStyle;rounded=0;orthogonalLoop=1;jettySize=auto;html=1;entryX=0;entryY=0.5;entryDx=0;entryDy=0;entryPerimeter=0;" edge="1" parent="1" source="BbRsbKk0lHvd4BBJ2xGI-2" target="BbRsbKk0lHvd4BBJ2xGI-1">
          <mxGeometry relative="1" as="geometry">
            <Array as="points">
              <mxPoint x="350" y="350" />
              <mxPoint x="350" y="230" />
            </Array>
          </mxGeometry>
        </mxCell>
        <mxCell id="BbRsbKk0lHvd4BBJ2xGI-10" value="No" style="edgeLabel;html=1;align=center;verticalAlign=middle;resizable=0;points=[];" vertex="1" connectable="0" parent="BbRsbKk0lHvd4BBJ2xGI-9">
          <mxGeometry x="0.15" y="-1" relative="1" as="geometry">
            <mxPoint as="offset" />
          </mxGeometry>
        </mxCell>
        <mxCell id="BbRsbKk0lHvd4BBJ2xGI-11" value="End" style="strokeWidth=2;html=1;shape=mxgraph.flowchart.terminator;whiteSpace=wrap;" vertex="1" parent="1">
          <mxGeometry x="370" y="600" width="100" height="60" as="geometry" />
        </mxCell>
        <mxCell id="BbRsbKk0lHvd4BBJ2xGI-12" style="edgeStyle=orthogonalEdgeStyle;rounded=0;orthogonalLoop=1;jettySize=auto;html=1;entryX=0.5;entryY=0;entryDx=0;entryDy=0;entryPerimeter=0;" edge="1" parent="1" source="BbRsbKk0lHvd4BBJ2xGI-4" target="BbRsbKk0lHvd4BBJ2xGI-11">
          <mxGeometry relative="1" as="geometry" />
        </mxCell>
        <mxCell id="BbRsbKk0lHvd4BBJ2xGI-13" value="Die" style="swimlane;fontStyle=1;align=center;verticalAlign=top;childLayout=stackLayout;horizontal=1;startSize=26;horizontalStack=0;resizeParent=1;resizeParentMax=0;resizeLast=0;collapsible=1;marginBottom=0;whiteSpace=wrap;html=1;" vertex="1" parent="1">
          <mxGeometry x="90" y="200" width="160" height="86" as="geometry" />
        </mxCell>
        <mxCell id="BbRsbKk0lHvd4BBJ2xGI-14" value="+ int rollVal;" style="text;strokeColor=none;fillColor=none;align=left;verticalAlign=top;spacingLeft=4;spacingRight=4;overflow=hidden;rotatable=0;points=[[0,0.5],[1,0.5]];portConstraint=eastwest;whiteSpace=wrap;html=1;" vertex="1" parent="BbRsbKk0lHvd4BBJ2xGI-13">
          <mxGeometry y="26" width="160" height="26" as="geometry" />
        </mxCell>
        <mxCell id="BbRsbKk0lHvd4BBJ2xGI-15" value="" style="line;strokeWidth=1;fillColor=none;align=left;verticalAlign=middle;spacingTop=-1;spacingLeft=3;spacingRight=3;rotatable=0;labelPosition=right;points=[];portConstraint=eastwest;strokeColor=inherit;" vertex="1" parent="BbRsbKk0lHvd4BBJ2xGI-13">
          <mxGeometry y="52" width="160" height="8" as="geometry" />
        </mxCell>
        <mxCell id="BbRsbKk0lHvd4BBJ2xGI-16" value="+ public int rollDie();" style="text;strokeColor=none;fillColor=none;align=left;verticalAlign=top;spacingLeft=4;spacingRight=4;overflow=hidden;rotatable=0;points=[[0,0.5],[1,0.5]];portConstraint=eastwest;whiteSpace=wrap;html=1;" vertex="1" parent="BbRsbKk0lHvd4BBJ2xGI-13">
          <mxGeometry y="60" width="160" height="26" as="geometry" />
        </mxCell>
      </root>
    </mxGraphModel>
  </diagram>
</mxfile>
